<?xml version="1.0" encoding="UTF-8"?>
<!DOCTYPE svg PUBLIC "-//W3C//DTD SVG 1.1//EN" "http://www.w3.org/Graphics/SVG/1.1/DTD/svg11.dtd">
<svg xmlns="http://www.w3.org/2000/svg" version="1.1" width="666px" height="743px" style="shape-rendering:geometricPrecision; text-rendering:geometricPrecision; image-rendering:optimizeQuality; fill-rule:evenodd; clip-rule:evenodd" xmlns:xlink="http://www.w3.org/1999/xlink">
<g><path style="opacity:0.984" fill="#70c0eb" d="M 344.5,52.5 C 343.425,51.4376 342.425,51.4376 341.5,52.5C 345.575,54.0252 348.575,56.6919 350.5,60.5C 353.496,72.8858 356.996,85.2191 361,97.5C 361.667,102.167 362.333,106.833 363,111.5C 363.925,112.047 364.758,112.713 365.5,113.5C 364.873,114.417 364.539,115.417 364.5,116.5C 356.346,112.838 348.512,108.504 341,103.5C 338.052,104.726 335.218,106.059 332.5,107.5C 332.338,105.176 331.172,103.509 329,102.5C 326.037,90.1448 322.537,77.9781 318.5,66C 319.672,65.5814 320.672,64.9147 321.5,64C 319.893,64.0187 318.226,64.1854 316.5,64.5C 323.488,58.6444 331.322,53.9777 340,50.5C 341.986,50.5687 343.486,51.2353 344.5,52.5 Z"/></g>
<g><path style="opacity:0.994" fill="#6ecbf3" d="M 344.5,52.5 C 367.859,64.4644 390.692,77.4644 413,91.5C 460.774,118.636 508.607,145.636 556.5,172.5C 558.104,174.179 558.771,176.179 558.5,178.5C 536.61,189.527 515.276,201.694 494.5,215C 486.762,218.371 479.429,222.538 472.5,227.5C 456.391,236.207 440.391,245.207 424.5,254.5C 422.167,255.833 419.833,255.833 417.5,254.5C 405.382,246.984 393.382,239.651 381.5,232.5C 381.678,231.064 382.011,229.564 382.5,228C 377.881,211.357 373.215,194.69 368.5,178C 370.825,176.548 370.825,174.881 368.5,173C 369.094,172.536 369.761,172.369 370.5,172.5C 383.03,181.269 396.363,188.769 410.5,195C 414.017,197.524 417.517,200.024 421,202.5C 427.006,198.002 433.506,194.168 440.5,191C 417.184,177.517 393.851,164.35 370.5,151.5C 370.369,150.624 370.702,149.957 371.5,149.5C 372.609,150.59 373.609,150.59 374.5,149.5C 372.521,147.736 372.188,145.736 373.5,143.5C 374.85,144.95 376.516,145.617 378.5,145.5C 401.778,159.725 425.612,173.058 450,185.5C 455.862,182.093 461.695,178.593 467.5,175C 460.707,171.796 454.04,168.463 447.5,165C 419.756,148.801 392.089,132.634 364.5,116.5C 364.539,115.417 364.873,114.417 365.5,113.5C 364.758,112.713 363.925,112.047 363,111.5C 362.333,106.833 361.667,102.167 361,97.5C 356.996,85.2191 353.496,72.8858 350.5,60.5C 348.575,56.6919 345.575,54.0252 341.5,52.5C 342.425,51.4376 343.425,51.4376 344.5,52.5 Z"/></g>
<g><path style="opacity:0.995" fill="#70b3e2" d="M 332.5,107.5 C 328.287,110.289 323.954,113.122 319.5,116C 316.898,117.14 314.231,117.973 311.5,118.5C 309.321,116.836 307.488,117.17 306,119.5C 302.011,105.876 298.177,92.2095 294.5,78.5C 295.274,77.2888 296.107,77.2888 297,78.5C 297.725,76.8425 297.225,75.8425 295.5,75.5C 299.253,72.6627 303.253,69.996 307.5,67.5C 310.433,66.1952 313.433,65.1952 316.5,64.5C 318.226,64.1854 319.893,64.0187 321.5,64C 320.672,64.9147 319.672,65.5814 318.5,66C 322.537,77.9781 326.037,90.1448 329,102.5C 331.172,103.509 332.338,105.176 332.5,107.5 Z"/></g>
<g><path style="opacity:0.993" fill="#70acdd" d="M 295.5,75.5 C 297.225,75.8425 297.725,76.8425 297,78.5C 296.107,77.2888 295.274,77.2888 294.5,78.5C 298.177,92.2095 302.011,105.876 306,119.5C 307.488,117.17 309.321,116.836 311.5,118.5C 304.176,123.937 296.51,128.937 288.5,133.5C 287.527,133.013 286.527,132.513 285.5,132C 287.516,130.972 288.516,129.305 288.5,127C 285.415,115.169 282.082,103.335 278.5,91.5C 278.709,90.0055 279.376,88.8388 280.5,88C 279.244,87.5831 278.577,86.7498 278.5,85.5C 283.687,81.4046 289.353,78.0712 295.5,75.5 Z"/></g>
<g><path style="opacity:0.999" fill="#71a0d5" d="M 278.5,85.5 C 278.577,86.7498 279.244,87.5831 280.5,88C 279.376,88.8388 278.709,90.0055 278.5,91.5C 282.082,103.335 285.415,115.169 288.5,127C 288.516,129.305 287.516,130.972 285.5,132C 286.527,132.513 287.527,133.013 288.5,133.5C 278.573,138.831 268.573,144.165 258.5,149.5C 257.996,146.575 256.663,144.075 254.5,142C 254.665,140.883 254.998,139.716 255.5,138.5C 254.5,137.667 253.5,136.833 252.5,136C 253.836,132.766 253.169,129.432 250.5,126C 249.22,121.961 249.22,118.294 250.5,115C 249.5,114.667 248.5,114.333 247.5,114C 247.833,111.667 248.167,109.333 248.5,107C 245.934,106.952 243.267,106.785 240.5,106.5C 252.676,98.6672 265.343,91.6672 278.5,85.5 Z"/></g>
<g><path style="opacity:0.989" fill="#7294cc" d="M 240.5,106.5 C 243.267,106.785 245.934,106.952 248.5,107C 248.167,109.333 247.833,111.667 247.5,114C 248.5,114.333 249.5,114.667 250.5,115C 249.22,118.294 249.22,121.961 250.5,126C 253.169,129.432 253.836,132.766 252.5,136C 253.5,136.833 254.5,137.667 255.5,138.5C 254.998,139.716 254.665,140.883 254.5,142C 256.663,144.075 257.996,146.575 258.5,149.5C 249.109,156.197 239.109,161.863 228.5,166.5C 228.575,162.103 228.075,157.77 227,153.5C 223.839,142.201 221.006,130.868 218.5,119.5C 225.749,115.202 233.083,110.868 240.5,106.5 Z"/></g>
<g><path style="opacity:1" fill="#70bde8" d="M 378.5,145.5 C 376.516,145.617 374.85,144.95 373.5,143.5C 372.188,145.736 372.521,147.736 374.5,149.5C 373.609,150.59 372.609,150.59 371.5,149.5C 370.702,149.957 370.369,150.624 370.5,151.5C 363.619,145.89 355.952,141.556 347.5,138.5C 342.325,141.127 337.158,141.127 332,138.5C 329.429,139.91 326.929,141.243 324.5,142.5C 323.307,142.03 322.64,141.03 322.5,139.5C 323.204,137.465 323.871,135.465 324.5,133.5C 324.821,131.952 325.821,131.285 327.5,131.5C 327.096,126.522 328.096,121.855 330.5,117.5C 333.882,116.706 337.215,115.706 340.5,114.5C 349.014,115.85 353.014,120.85 352.5,129.5C 353.5,130.5 354.5,131.5 355.5,132.5C 363.258,136.982 370.924,141.315 378.5,145.5 Z"/></g>
<g><path style="opacity:0.998" fill="#7289c5" d="M 218.5,119.5 C 221.006,130.868 223.839,142.201 227,153.5C 228.075,157.77 228.575,162.103 228.5,166.5C 218.513,172.495 208.513,178.495 198.5,184.5C 198.611,183.883 198.944,183.383 199.5,183C 196.395,169.084 192.728,155.251 188.5,141.5C 189.167,140.833 189.833,140.167 190.5,139.5C 188.989,137.162 189.323,136.496 191.5,137.5C 193.975,136.413 193.975,135.747 191.5,135.5C 199.934,129.441 208.934,124.107 218.5,119.5 Z"/></g>
<g><path style="opacity:0.988" fill="#7280bf" d="M 191.5,135.5 C 193.975,135.747 193.975,136.413 191.5,137.5C 189.323,136.496 188.989,137.162 190.5,139.5C 189.833,140.167 189.167,140.833 188.5,141.5C 192.728,155.251 196.395,169.084 199.5,183C 198.944,183.383 198.611,183.883 198.5,184.5C 192.547,188.361 186.547,192.027 180.5,195.5C 179.133,193.858 178.799,192.192 179.5,190.5C 175.299,178.703 171.965,166.536 169.5,154C 169.544,152.236 169.878,150.569 170.5,149C 169.906,148.536 169.239,148.369 168.5,148.5C 170.059,147.171 171.725,145.838 173.5,144.5C 179.847,141.993 185.847,138.993 191.5,135.5 Z"/></g>
<g><path style="opacity:0.936" fill="#70acdd" d="M 324.5,133.5 C 323.871,135.465 323.204,137.465 322.5,139.5C 322.64,141.03 323.307,142.03 324.5,142.5C 316.75,147.239 308.75,151.572 300.5,155.5C 298.398,155.43 296.398,154.93 294.5,154C 296.595,153.444 296.762,152.944 295,152.5C 293.739,152.759 292.739,153.426 292,154.5C 291.536,153.906 291.369,153.239 291.5,152.5C 301.8,145.257 312.8,138.924 324.5,133.5 Z"/></g>
<g><path style="opacity:0.997" fill="#70b5e3" d="M 345.5,160.5 C 344.722,161.156 344.056,161.989 343.5,163C 344.723,165.057 345.723,167.223 346.5,169.5C 349.874,182.381 353.041,195.381 356,208.5C 357.132,213.119 358.632,217.119 360.5,220.5C 356.496,218.172 352.163,216.339 347.5,215C 345.2,213.275 343.034,211.442 341,209.5C 338.051,212.393 334.551,214.393 330.5,215.5C 330.19,214.262 329.69,214.262 329,215.5C 326.067,200.99 322.567,186.657 318.5,172.5C 314.764,172.34 314.764,171.507 318.5,170C 317.906,169.536 317.239,169.369 316.5,169.5C 324.342,165.326 332.175,160.992 340,156.5C 342.476,157.145 344.309,158.478 345.5,160.5 Z"/></g>
<g><path style="opacity:0.999" fill="#7274b7" d="M 168.5,148.5 C 169.239,148.369 169.906,148.536 170.5,149C 169.878,150.569 169.544,152.236 169.5,154C 171.965,166.536 175.299,178.703 179.5,190.5C 178.799,192.192 179.133,193.858 180.5,195.5C 176.303,196.761 172.636,198.761 169.5,201.5C 167.838,227.154 166.838,253.154 166.5,279.5C 157.169,242.565 147.836,205.565 138.5,168.5C 136.5,168.5 134.5,168.5 132.5,168.5C 144.284,161.537 156.284,154.871 168.5,148.5 Z"/></g>
<g><path style="opacity:0.99" fill="#70beea" d="M 345.5,160.5 C 353.839,164.653 362.172,168.653 370.5,172.5C 369.761,172.369 369.094,172.536 368.5,173C 370.825,174.881 370.825,176.548 368.5,178C 373.215,194.69 377.881,211.357 382.5,228C 382.011,229.564 381.678,231.064 381.5,232.5C 378.657,232.083 375.99,231.083 373.5,229.5C 369.194,226.203 364.861,223.203 360.5,220.5C 358.632,217.119 357.132,213.119 356,208.5C 353.041,195.381 349.874,182.381 346.5,169.5C 345.723,167.223 344.723,165.057 343.5,163C 344.056,161.989 344.722,161.156 345.5,160.5 Z"/></g>
<g><path style="opacity:0.974" fill="#726db2" d="M 132.5,168.5 C 134.5,168.5 136.5,168.5 138.5,168.5C 147.836,205.565 157.169,242.565 166.5,279.5C 166.838,253.154 167.838,227.154 169.5,201.5C 169.333,249.834 169.5,298.168 170,346.5C 172.094,344.992 174.26,343.658 176.5,342.5C 179.044,342.896 181.211,342.229 183,340.5C 185.637,355.487 189.137,370.321 193.5,385C 192.944,385.383 192.611,385.883 192.5,386.5C 186.733,390.891 180.399,394.558 173.5,397.5C 174.953,396.175 174.619,395.342 172.5,395C 173.167,394.333 173.833,393.667 174.5,393C 171.252,381.513 167.919,370.013 164.5,358.5C 153.423,313.296 142.257,267.963 131,222.5C 128.748,214.908 126.248,207.574 123.5,200.5C 123.334,191.494 123.5,182.494 124,173.5C 126.708,171.467 129.541,169.801 132.5,168.5 Z"/></g>
<g><path style="opacity:0.995" fill="#70abdc" d="M 316.5,169.5 C 317.239,169.369 317.906,169.536 318.5,170C 314.764,171.507 314.764,172.34 318.5,172.5C 322.567,186.657 326.067,200.99 329,215.5C 329.69,214.262 330.19,214.262 330.5,215.5C 324.836,218.496 319.169,221.496 313.5,224.5C 309.688,211.301 306.021,197.634 302.5,183.5C 300.824,182.272 300.491,180.939 301.5,179.5C 301.721,178.265 302.388,177.265 303.5,176.5C 307.762,173.989 312.096,171.656 316.5,169.5 Z"/></g>
<g><path style="opacity:0.903" fill="#7198cf" d="M 291.5,152.5 C 291.369,153.239 291.536,153.906 292,154.5C 292.739,153.426 293.739,152.759 295,152.5C 296.762,152.944 296.595,153.444 294.5,154C 296.398,154.93 298.398,155.43 300.5,155.5C 298.653,157.796 296.319,159.629 293.5,161C 275.127,171.185 256.793,181.351 238.5,191.5C 237.741,189.569 236.407,188.069 234.5,187C 235.793,186.51 237.127,186.343 238.5,186.5C 238.768,184.901 238.434,183.568 237.5,182.5C 252.499,173.061 267.833,164.061 283.5,155.5C 285.99,153.917 288.657,152.917 291.5,152.5 Z"/></g>
<g><path style="opacity:0.999" fill="#71a1d5" d="M 301.5,179.5 C 300.491,180.939 300.824,182.272 302.5,183.5C 306.021,197.634 309.688,211.301 313.5,224.5C 303.388,231.568 292.722,237.901 281.5,243.5C 281.261,239.805 279.928,236.638 277.5,234C 278.036,232.256 278.37,230.423 278.5,228.5C 277.5,227.667 276.5,226.833 275.5,226C 276.036,224.256 276.37,222.423 276.5,220.5C 273.741,218.857 273.074,216.691 274.5,214C 273.308,210.52 271.975,207.187 270.5,204C 271.767,202.204 271.767,200.371 270.5,198.5C 271.767,196.683 273.1,195.016 274.5,193.5C 279.719,191.026 284.719,188.026 289.5,184.5C 293.314,182.256 297.314,180.589 301.5,179.5 Z"/></g>
<g><path style="opacity:1" fill="#7268af" d="M 123.5,200.5 C 126.248,207.574 128.748,214.908 131,222.5C 142.257,267.963 153.423,313.296 164.5,358.5C 167.919,370.013 171.252,381.513 174.5,393C 173.833,393.667 173.167,394.333 172.5,395C 174.619,395.342 174.953,396.175 173.5,397.5C 171.919,399.303 169.919,400.636 167.5,401.5C 167.414,400.504 167.748,399.671 168.5,399C 167.551,398.383 166.718,398.549 166,399.5C 160.164,372.729 153.331,345.395 145.5,317.5C 144.692,317.192 144.025,316.692 143.5,316C 143.833,314.333 144.167,312.667 144.5,311C 141.561,309.108 140.894,306.775 142.5,304C 141.494,302.662 140.494,301.329 139.5,300C 139.461,298.755 139.795,297.422 140.5,296C 138.985,292.049 137.652,288.049 136.5,284C 136.833,283 137.167,282 137.5,281C 134.994,278.279 134.327,275.612 135.5,273C 133.734,269.423 132.067,265.756 130.5,262C 130.833,261 131.167,260 131.5,259C 128.956,251.086 126.289,243.252 123.5,235.5C 123.5,223.833 123.5,212.167 123.5,200.5 Z"/></g>
<g><path style="opacity:0.947" fill="#7281bf" d="M 237.5,182.5 C 238.434,183.568 238.768,184.901 238.5,186.5C 237.127,186.343 235.793,186.51 234.5,187C 236.407,188.069 237.741,189.569 238.5,191.5C 227.828,197.835 217.162,204.169 206.5,210.5C 204.925,214.496 203.258,218.496 201.5,222.5C 199.897,223.793 198.231,224.793 196.5,225.5C 195.849,224.909 195.182,224.243 194.5,223.5C 193.668,231.813 193.168,240.147 193,248.5C 191.168,241.097 189.668,233.764 188.5,226.5C 186.123,224.773 183.79,222.773 181.5,220.5C 178.352,204.813 184.519,198.813 200,202.5C 201.167,202.167 202.333,201.833 203.5,201.5C 214.925,195.165 226.258,188.832 237.5,182.5 Z"/></g>
<g><path style="opacity:0.996" fill="#7294cc" d="M 274.5,193.5 C 273.1,195.016 271.767,196.683 270.5,198.5C 271.767,200.371 271.767,202.204 270.5,204C 271.975,207.187 273.308,210.52 274.5,214C 273.074,216.691 273.741,218.857 276.5,220.5C 276.37,222.423 276.036,224.256 275.5,226C 276.5,226.833 277.5,227.667 278.5,228.5C 278.37,230.423 278.036,232.256 277.5,234C 279.928,236.638 281.261,239.805 281.5,243.5C 275.829,247.338 269.829,250.671 263.5,253.5C 262.603,252.402 261.77,252.402 261,253.5C 260.667,264.167 260.333,274.833 260,285.5C 254.376,262.395 248.542,239.395 242.5,216.5C 243.748,214.541 245.415,213.041 247.5,212C 246.663,210.989 246.33,209.822 246.5,208.5C 255.741,203.34 265.075,198.34 274.5,193.5 Z"/></g>
<g><path style="opacity:0.91" fill="#728ec8" d="M 246.5,208.5 C 246.33,209.822 246.663,210.989 247.5,212C 245.415,213.041 243.748,214.541 242.5,216.5C 248.542,239.395 254.376,262.395 260,285.5C 260.333,274.833 260.667,264.167 261,253.5C 261.77,252.402 262.603,252.402 263.5,253.5C 263.167,284.507 263.5,315.507 264.5,346.5C 276.163,354.001 288.163,361.001 300.5,367.5C 301.298,367.957 301.631,368.624 301.5,369.5C 300.425,370.713 299.759,372.213 299.5,374C 303.238,390.907 307.905,407.407 313.5,423.5C 312.624,424.251 311.624,424.751 310.5,425C 311.738,425.69 311.738,426.19 310.5,426.5C 297.505,418.667 284.172,411.333 270.5,404.5C 269.388,403.735 268.721,402.735 268.5,401.5C 270.435,402.15 272.435,402.483 274.5,402.5C 270.397,384.142 265.731,365.975 260.5,348C 250.425,306.203 239.758,264.37 228.5,222.5C 227.209,222.737 226.209,222.404 225.5,221.5C 232.658,217.421 239.658,213.088 246.5,208.5 Z"/></g>
<g><path style="opacity:1" fill="#7287c4" d="M 225.5,221.5 C 226.209,222.404 227.209,222.737 228.5,222.5C 239.758,264.37 250.425,306.203 260.5,348C 265.731,365.975 270.397,384.142 274.5,402.5C 272.435,402.483 270.435,402.15 268.5,401.5C 262.991,400.586 258.658,397.92 255.5,393.5C 256.239,393.631 256.906,393.464 257.5,393C 255.069,392.705 253.236,391.538 252,389.5C 250.284,377.442 247.284,365.776 243,354.5C 234.814,321.757 226.648,289.09 218.5,256.5C 217.668,247.184 217.168,237.851 217,228.5C 216.617,227.944 216.117,227.611 215.5,227.5C 218.132,224.51 221.465,222.51 225.5,221.5 Z"/></g>
<g><path style="opacity:0.96" fill="#7281bf" d="M 215.5,227.5 C 216.117,227.611 216.617,227.944 217,228.5C 217.168,237.851 217.668,247.184 218.5,256.5C 226.648,289.09 234.814,321.757 243,354.5C 247.284,365.776 250.284,377.442 252,389.5C 253.236,391.538 255.069,392.705 257.5,393C 256.906,393.464 256.239,393.631 255.5,393.5C 251.093,392.134 246.76,390.468 242.5,388.5C 238.605,386.016 234.605,383.682 230.5,381.5C 229.388,380.735 228.721,379.735 228.5,378.5C 229.468,375.974 228.634,375.308 226,376.5C 221.744,360.433 217.577,344.267 213.5,328C 213.748,326.284 214.415,324.784 215.5,323.5C 214.944,322.337 214.611,321.337 214.5,320.5C 214.169,289.329 214.502,258.329 215.5,227.5 Z"/></g>
<g><path style="opacity:0.998" fill="#7263ac" d="M 123.5,235.5 C 126.289,243.252 128.956,251.086 131.5,259C 131.167,260 130.833,261 130.5,262C 132.067,265.756 133.734,269.423 135.5,273C 134.327,275.612 134.994,278.279 137.5,281C 137.167,282 136.833,283 136.5,284C 137.652,288.049 138.985,292.049 140.5,296C 139.795,297.422 139.461,298.755 139.5,300C 140.494,301.329 141.494,302.662 142.5,304C 140.894,306.775 141.561,309.108 144.5,311C 144.167,312.667 143.833,314.333 143.5,316C 144.025,316.692 144.692,317.192 145.5,317.5C 153.331,345.395 160.164,372.729 166,399.5C 166.718,398.549 167.551,398.383 168.5,399C 167.748,399.671 167.414,400.504 167.5,401.5C 158.971,407.266 149.971,412.266 140.5,416.5C 142.797,413.201 145.464,410.201 148.5,407.5C 145.408,399.802 143.241,391.802 142,383.5C 141.044,382.421 140.211,381.255 139.5,380C 139.833,379 140.167,378 140.5,377C 139.167,373.333 137.833,369.667 136.5,366C 136.833,364.333 137.167,362.667 137.5,361C 133.213,346.009 128.546,331.175 123.5,316.5C 123.5,289.5 123.5,262.5 123.5,235.5 Z"/></g>
<g><path style="opacity:0.982" fill="#cadb43" d="M 554.5,428.5 C 554.36,426.876 555.027,425.71 556.5,425C 555.833,420 555.167,415 554.5,410C 555.637,404.918 555.804,399.751 555,394.5C 539.715,368.589 524.382,342.923 509,317.5C 508.5,344.165 508.333,370.831 508.5,397.5C 504.921,397.316 501.587,397.983 498.5,399.5C 500.404,397.56 502.571,395.894 505,394.5C 505.5,351.168 505.667,307.835 505.5,264.5C 509.686,263.411 513.686,261.744 517.5,259.5C 530.215,250.31 543.882,242.977 558.5,237.5C 558.833,300.504 558.5,363.504 557.5,426.5C 556.735,427.612 555.735,428.279 554.5,428.5 Z"/></g>
<g><path style="opacity:0.99" fill="#6fcbf2" d="M 427.5,393.5 C 427.631,392.761 427.464,392.094 427,391.5C 425.887,392.711 424.72,392.711 423.5,391.5C 420.178,379.741 417.178,367.907 414.5,356C 415.094,353.327 415.094,350.827 414.5,348.5C 416.143,348.52 417.476,347.853 418.5,346.5C 419.499,335.854 419.832,325.187 419.5,314.5C 433.233,307.798 446.566,300.298 459.5,292C 461.81,291.503 464.143,291.337 466.5,291.5C 466.5,318.5 466.5,345.5 466.5,372.5C 459.488,375.557 452.821,379.39 446.5,384C 439.998,387.023 433.665,390.189 427.5,393.5 Z"/></g>
<g><path style="opacity:1" fill="#725ca8" d="M 123.5,316.5 C 128.546,331.175 133.213,346.009 137.5,361C 137.167,362.667 136.833,364.333 136.5,366C 137.833,369.667 139.167,373.333 140.5,377C 140.167,378 139.833,379 139.5,380C 140.211,381.255 141.044,382.421 142,383.5C 143.241,391.802 145.408,399.802 148.5,407.5C 145.464,410.201 142.797,413.201 140.5,416.5C 135.567,420.309 130.234,423.642 124.5,426.5C 123.5,389.839 123.167,353.173 123.5,316.5 Z"/></g>
<g><path style="opacity:0.985" fill="#7277b9" d="M 196.5,225.5 C 196.333,260.835 196.5,296.168 197,331.5C 197.645,330.354 198.478,329.354 199.5,328.5C 204.686,326.075 209.686,323.409 214.5,320.5C 214.611,321.337 214.944,322.337 215.5,323.5C 214.415,324.784 213.748,326.284 213.5,328C 217.577,344.267 221.744,360.433 226,376.5C 228.634,375.308 229.468,375.974 228.5,378.5C 223.896,377.448 219.729,375.448 216,372.5C 210.799,376.69 205.299,380.524 199.5,384C 197.348,385.413 195.014,386.246 192.5,386.5C 192.611,385.883 192.944,385.383 193.5,385C 189.137,370.321 185.637,355.487 183,340.5C 181.211,342.229 179.044,342.896 176.5,342.5C 180.219,340.312 184.219,338.645 188.5,337.5C 188.5,300.5 188.5,263.5 188.5,226.5C 189.668,233.764 191.168,241.097 193,248.5C 193.168,240.147 193.668,231.813 194.5,223.5C 195.182,224.243 195.849,224.909 196.5,225.5 Z"/></g>
<g><path style="opacity:0.977" fill="#70beea" d="M 414.5,348.5 C 415.094,350.827 415.094,353.327 414.5,356C 417.178,367.907 420.178,379.741 423.5,391.5C 424.72,392.711 425.887,392.711 427,391.5C 427.464,392.094 427.631,392.761 427.5,393.5C 421.187,397.994 414.52,401.994 407.5,405.5C 403.095,392.779 399.428,379.779 396.5,366.5C 395.943,364.668 394.943,363.335 393.5,362.5C 400.607,358.105 407.607,353.438 414.5,348.5 Z"/></g>
<g><path style="opacity:0.996" fill="#70b3e2" d="M 393.5,362.5 C 394.943,363.335 395.943,364.668 396.5,366.5C 399.428,379.779 403.095,392.779 407.5,405.5C 398.977,411.264 389.977,416.264 380.5,420.5C 380.574,418.589 381.574,417.422 383.5,417C 382.552,416.517 381.552,416.351 380.5,416.5C 380.151,411.433 379.318,406.433 378,401.5C 375.659,394.358 373.493,387.025 371.5,379.5C 369.664,378.972 367.997,378.306 366.5,377.5C 374.675,371.241 383.675,366.241 393.5,362.5 Z"/></g>
<g><path style="opacity:0.987" fill="#7198cf" d="M 301.5,369.5 C 307.385,371.723 313.052,374.39 318.5,377.5C 318.489,379.017 317.823,380.184 316.5,381C 317.424,381.85 317.424,382.85 316.5,384C 317.022,384.95 317.689,385.784 318.5,386.5C 318.37,388.423 318.036,390.256 317.5,392C 318.5,392.333 319.5,392.667 320.5,393C 320.167,395.333 319.833,397.667 319.5,400C 320.5,400.333 321.5,400.667 322.5,401C 322.167,402.667 321.833,404.333 321.5,406C 322.5,406.333 323.5,406.667 324.5,407C 324.167,409.333 323.833,411.667 323.5,414C 324.5,414.333 325.5,414.667 326.5,415C 326.167,416.667 325.833,418.333 325.5,420C 326.5,421 327.5,422 328.5,423C 328.167,424 327.833,425 327.5,426C 329.438,428.568 330.271,431.402 330,434.5C 329.309,432.109 328.309,432.109 327,434.5C 326.023,433.226 325.189,433.226 324.5,434.5C 319.437,432.309 314.77,429.642 310.5,426.5C 311.738,426.19 311.738,425.69 310.5,425C 311.624,424.751 312.624,424.251 313.5,423.5C 307.905,407.407 303.238,390.907 299.5,374C 299.759,372.213 300.425,370.713 301.5,369.5 Z"/></g>
<g><path style="opacity:0.99" fill="#70a7d9" d="M 366.5,377.5 C 367.997,378.306 369.664,378.972 371.5,379.5C 373.493,387.025 375.659,394.358 378,401.5C 379.318,406.433 380.151,411.433 380.5,416.5C 381.552,416.351 382.552,416.517 383.5,417C 381.574,417.422 380.574,418.589 380.5,420.5C 372.752,424.881 365.086,429.548 357.5,434.5C 357.083,433.876 356.416,433.543 355.5,433.5C 353.757,435.227 351.924,435.894 350,435.5C 349.97,432.385 348.803,429.885 346.5,428C 347.036,426.256 347.37,424.423 347.5,422.5C 346.5,421.667 345.5,420.833 344.5,420C 344.833,418.333 345.167,416.667 345.5,415C 344.5,414.667 343.5,414.333 342.5,414C 342.833,411.667 343.167,409.333 343.5,407C 341.679,404.544 341.012,401.711 341.5,398.5C 340.448,398.649 339.448,398.483 338.5,398C 339.249,396.266 339.749,394.433 340,392.5C 341.756,393.985 342.923,393.652 343.5,391.5C 350.303,385.59 357.97,380.923 366.5,377.5 Z"/></g>
<g><path style="opacity:0.999" fill="#719ed3" d="M 318.5,377.5 C 323.434,381.643 328.767,385.309 334.5,388.5C 337.252,390.336 340.252,391.336 343.5,391.5C 342.923,393.652 341.756,393.985 340,392.5C 339.749,394.433 339.249,396.266 338.5,398C 339.448,398.483 340.448,398.649 341.5,398.5C 341.012,401.711 341.679,404.544 343.5,407C 343.167,409.333 342.833,411.667 342.5,414C 343.5,414.333 344.5,414.667 345.5,415C 345.167,416.667 344.833,418.333 344.5,420C 345.5,420.833 346.5,421.667 347.5,422.5C 347.37,424.423 347.036,426.256 346.5,428C 348.803,429.885 349.97,432.385 350,435.5C 351.924,435.894 353.757,435.227 355.5,433.5C 356.416,433.543 357.083,433.876 357.5,434.5C 351.85,437.719 346.016,440.719 340,443.5C 336.647,440.741 332.814,438.908 328.5,438C 326.681,437.26 325.348,436.093 324.5,434.5C 325.189,433.226 326.023,433.226 327,434.5C 328.309,432.109 329.309,432.109 330,434.5C 330.271,431.402 329.438,428.568 327.5,426C 327.833,425 328.167,424 328.5,423C 327.5,422 326.5,421 325.5,420C 325.833,418.333 326.167,416.667 326.5,415C 325.5,414.667 324.5,414.333 323.5,414C 323.833,411.667 324.167,409.333 324.5,407C 323.5,406.667 322.5,406.333 321.5,406C 321.833,404.333 322.167,402.667 322.5,401C 321.5,400.667 320.5,400.333 319.5,400C 319.833,397.667 320.167,395.333 320.5,393C 319.5,392.667 318.5,392.333 317.5,392C 318.036,390.256 318.37,388.423 318.5,386.5C 317.689,385.784 317.022,384.95 316.5,384C 317.424,382.85 317.424,381.85 316.5,381C 317.823,380.184 318.489,379.017 318.5,377.5 Z"/></g>
<g><path style="opacity:0.997" fill="#c6d937" d="M 554.5,428.5 C 539.182,437.16 523.848,445.827 508.5,454.5C 507.778,454.082 507.278,453.416 507,452.5C 505.611,456.272 504.611,456.272 504,452.5C 503.667,453.167 503.333,453.833 503,454.5C 502.02,453.019 500.853,451.685 499.5,450.5C 492.16,437.825 484.827,425.158 477.5,412.5C 483.703,406.98 490.703,402.647 498.5,399.5C 501.587,397.983 504.921,397.316 508.5,397.5C 508.333,370.831 508.5,344.165 509,317.5C 524.382,342.923 539.715,368.589 555,394.5C 555.804,399.751 555.637,404.918 554.5,410C 555.167,415 555.833,420 556.5,425C 555.027,425.71 554.36,426.876 554.5,428.5 Z"/></g>
<g><path style="opacity:0.999" fill="#bcd336" d="M 477.5,412.5 C 484.827,425.158 492.16,437.825 499.5,450.5C 500.853,451.685 502.02,453.019 503,454.5C 503.333,453.833 503.667,453.167 504,452.5C 504.611,456.272 505.611,456.272 507,452.5C 507.278,453.416 507.778,454.082 508.5,454.5C 500.215,460.463 491.215,465.129 481.5,468.5C 482.141,467.518 482.807,466.518 483.5,465.5C 482.359,464.575 482.359,463.741 483.5,463C 482.5,462.667 481.5,462.333 480.5,462C 481.337,460.989 481.67,459.822 481.5,458.5C 479.798,457.925 478.131,457.092 476.5,456C 477.022,455.439 477.355,454.772 477.5,454C 471.335,443.156 465.001,432.99 458.5,423.5C 459.957,421.215 461.957,419.382 464.5,418C 469.163,416.661 473.496,414.828 477.5,412.5 Z"/></g>
<g><path style="opacity:0.989" fill="#7ea93f" d="M 248.5,437.5 C 254.85,450.979 262.517,464.146 271.5,477C 271.167,477.333 270.833,477.667 270.5,478C 278.642,490.688 286.642,503.354 294.5,516C 295.233,517.766 295.567,519.599 295.5,521.5C 294.07,521.579 292.736,521.246 291.5,520.5C 290.537,520.97 290.537,521.637 291.5,522.5C 272.706,513.141 255.039,502.974 238.5,492C 234.237,489.803 229.903,487.803 225.5,486C 210.171,476.333 194.504,467.166 178.5,458.5C 177.689,457.784 177.022,456.95 176.5,456C 178.951,453.602 181.618,451.436 184.5,449.5C 199.312,442.263 213.646,434.263 227.5,425.5C 228.5,425.667 229.5,425.833 230.5,426C 236.45,430.128 242.45,433.961 248.5,437.5 Z"/></g>
<g><path style="opacity:0.997" fill="#b5ce37" d="M 458.5,423.5 C 465.001,432.99 471.335,443.156 477.5,454C 477.355,454.772 477.022,455.439 476.5,456C 478.131,457.092 479.798,457.925 481.5,458.5C 481.67,459.822 481.337,460.989 480.5,462C 481.5,462.333 482.5,462.667 483.5,463C 482.359,463.741 482.359,464.575 483.5,465.5C 482.807,466.518 482.141,467.518 481.5,468.5C 481.279,469.735 480.612,470.735 479.5,471.5C 473.924,474.786 468.258,477.786 462.5,480.5C 461.624,480.631 460.957,480.298 460.5,479.5C 461.383,478.452 462.05,477.285 462.5,476C 461.278,473.966 460.278,471.8 459.5,469.5C 452.895,457.307 445.561,445.64 437.5,434.5C 443.748,429.541 450.748,425.875 458.5,423.5 Z"/></g>
<g><path style="opacity:1" fill="#aec839" d="M 437.5,434.5 C 445.561,445.64 452.895,457.307 459.5,469.5C 460.278,471.8 461.278,473.966 462.5,476C 462.05,477.285 461.383,478.452 460.5,479.5C 460.957,480.298 461.624,480.631 462.5,480.5C 456.593,484.712 450.26,488.378 443.5,491.5C 437.917,482.002 432.583,472.336 427.5,462.5C 424.887,458.329 422.053,454.329 419,450.5C 418.517,449.552 418.351,448.552 418.5,447.5C 423.086,446.985 423.419,445.985 419.5,444.5C 425.759,441.702 431.759,438.369 437.5,434.5 Z"/></g>
<g><path style="opacity:0.998" fill="#a7c43a" d="M 419.5,444.5 C 423.419,445.985 423.086,446.985 418.5,447.5C 418.351,448.552 418.517,449.552 419,450.5C 422.053,454.329 424.887,458.329 427.5,462.5C 432.583,472.336 437.917,482.002 443.5,491.5C 433.349,497.745 423.016,503.745 412.5,509.5C 413.602,507.908 412.935,507.075 410.5,507C 415.158,507.046 416.324,505.212 414,501.5C 413.667,501.833 413.333,502.167 413,502.5C 411.887,501.24 411.72,500.073 412.5,499C 411.5,498.667 410.5,498.333 409.5,498C 409.833,497.667 410.167,497.333 410.5,497C 409.5,496 408.5,495 407.5,494C 408.833,492.16 408.666,491.66 407,492.5C 401.303,482.964 395.803,473.297 390.5,463.5C 389.583,464.127 388.583,464.461 387.5,464.5C 390.405,462.288 393.405,459.955 396.5,457.5C 404.077,452.882 411.744,448.548 419.5,444.5 Z"/></g>
<g><path style="opacity:0.999" fill="#88af3e" d="M 248.5,437.5 C 263.549,444.346 277.549,452.68 290.5,462.5C 290.217,463.216 289.884,464.049 289.5,465C 291.68,466.878 293.513,469.044 295,471.5C 305.658,490.161 316.325,508.828 327,527.5C 330.657,532.806 334.324,538.139 338,543.5C 338.617,546.176 337.784,546.843 335.5,545.5C 334.702,545.957 334.369,546.624 334.5,547.5C 319.69,539.93 305.357,531.597 291.5,522.5C 290.537,521.637 290.537,520.97 291.5,520.5C 292.736,521.246 294.07,521.579 295.5,521.5C 295.567,519.599 295.233,517.766 294.5,516C 286.642,503.354 278.642,490.688 270.5,478C 270.833,477.667 271.167,477.333 271.5,477C 262.517,464.146 254.85,450.979 248.5,437.5 Z"/></g>
<g><path style="opacity:0.998" fill="#8eb33e" d="M 290.5,462.5 C 294.695,463.594 298.695,465.261 302.5,467.5C 315.227,474.983 328.061,482.317 341,489.5C 343.793,487.962 346.626,486.629 349.5,485.5C 347.933,486.723 346.767,488.723 346,491.5C 346.333,491.167 346.667,490.833 347,490.5C 347.333,491.833 347.667,493.167 348,494.5C 348.333,494.167 348.667,493.833 349,493.5C 351.072,498.664 353.406,502.997 356,506.5C 356.333,506.167 356.667,505.833 357,505.5C 359.931,513.603 364.598,522.27 371,531.5C 372.011,530.663 373.178,530.33 374.5,530.5C 372.056,532.339 369.556,534.339 367,536.5C 359.436,540.195 351.936,544.195 344.5,548.5C 340.877,549.943 337.544,549.609 334.5,547.5C 334.369,546.624 334.702,545.957 335.5,545.5C 337.784,546.843 338.617,546.176 338,543.5C 334.324,538.139 330.657,532.806 327,527.5C 316.325,508.828 305.658,490.161 295,471.5C 293.513,469.044 291.68,466.878 289.5,465C 289.884,464.049 290.217,463.216 290.5,462.5 Z"/></g>
<g><path style="opacity:1" fill="#9fbe3b" d="M 412.5,509.5 C 405.614,513.443 398.614,517.109 391.5,520.5C 392.914,518.402 392.248,517.402 389.5,517.5C 382.718,503.381 374.718,489.881 365.5,477C 368.901,477.266 370.567,475.766 370.5,472.5C 375.493,468.533 381.16,465.866 387.5,464.5C 388.583,464.461 389.583,464.127 390.5,463.5C 395.803,473.297 401.303,482.964 407,492.5C 408.666,491.66 408.833,492.16 407.5,494C 408.5,495 409.5,496 410.5,497C 410.167,497.333 409.833,497.667 409.5,498C 410.5,498.333 411.5,498.667 412.5,499C 411.72,500.073 411.887,501.24 413,502.5C 413.333,502.167 413.667,501.833 414,501.5C 416.324,505.212 415.158,507.046 410.5,507C 412.935,507.075 413.602,507.908 412.5,509.5 Z"/></g>
<g><path style="opacity:0.999" fill="#97b93d" d="M 370.5,472.5 C 370.567,475.766 368.901,477.266 365.5,477C 374.718,489.881 382.718,503.381 389.5,517.5C 392.248,517.402 392.914,518.402 391.5,520.5C 388.467,523.206 385.134,525.706 381.5,528C 379.348,529.413 377.014,530.246 374.5,530.5C 373.178,530.33 372.011,530.663 371,531.5C 364.598,522.27 359.931,513.603 357,505.5C 356.667,505.833 356.333,506.167 356,506.5C 353.406,502.997 351.072,498.664 349,493.5C 348.667,493.833 348.333,494.167 348,494.5C 347.667,493.167 347.333,491.833 347,490.5C 346.667,490.833 346.333,491.167 346,491.5C 346.767,488.723 347.933,486.723 349.5,485.5C 356.306,480.927 363.306,476.593 370.5,472.5 Z"/></g>
<g><path style="opacity:0.881" fill="#727ebe" d="M 319.5,614.5 C 318.849,615.091 318.182,615.757 317.5,616.5C 315.88,613.942 314.38,613.942 313,616.5C 311.704,615.932 310.204,615.932 308.5,616.5C 306.886,616.197 305.552,615.53 304.5,614.5C 298.167,614.5 291.833,614.5 285.5,614.5C 285.5,609.833 285.5,605.167 285.5,600.5C 302.5,600.5 319.5,600.5 336.5,600.5C 336.5,605.167 336.5,609.833 336.5,614.5C 330.833,614.5 325.167,614.5 319.5,614.5 Z"/></g>
<g><path style="opacity:1" fill="#726db2" d="M 131.5,600.5 C 147.837,600.333 164.17,600.5 180.5,601C 181.467,605.401 181.8,609.901 181.5,614.5C 164.5,614.5 147.5,614.5 130.5,614.5C 130.226,609.737 130.559,605.07 131.5,600.5 Z"/></g>
<g><path style="opacity:0.864" fill="#7289c5" d="M 362.5,600.5 C 378.503,600.333 394.503,600.5 410.5,601C 411.467,605.401 411.8,609.901 411.5,614.5C 395.167,614.5 378.833,614.5 362.5,614.5C 362.5,609.833 362.5,605.167 362.5,600.5 Z"/></g>
<g><path style="opacity:0.875" fill="#719ad0" d="M 523.5,620.5 C 522.733,619.828 522.066,618.995 521.5,618C 522.517,616.951 522.684,615.784 522,614.5C 519.196,616.344 516.03,617.011 512.5,616.5C 510.827,621.366 510.16,628.366 510.5,637.5C 510.167,637.5 509.833,637.5 509.5,637.5C 509.5,625.167 509.5,612.833 509.5,600.5C 514.167,600.5 518.833,600.5 523.5,600.5C 523.5,607.167 523.5,613.833 523.5,620.5 Z"/></g>
<g><path style="opacity:0.984" fill="#7269af" d="M 53.5,633.5 C 52.7761,636.083 51.9428,638.749 51,641.5C 48.4081,641.399 45.7414,641.066 43,640.5C 42,641.5 41,642.5 40,643.5C 39.8171,640.635 39.3171,637.969 38.5,635.5C 39.6454,618.013 48.6454,606.679 65.5,601.5C 75.0148,599.88 84.3482,600.547 93.5,603.5C 97.3683,605.079 100.702,607.412 103.5,610.5C 104.833,612.5 104.833,614.5 103.5,616.5C 101.787,617.878 100.453,619.545 99.5,621.5C 98.3333,621.833 97.1667,622.167 96,622.5C 92.0683,620.417 88.235,618.084 84.5,615.5C 68.5483,611.972 58.215,617.972 53.5,633.5 Z"/></g>
<g><path style="opacity:0.905" fill="#727ebd" d="M 238.5,631.5 C 236.253,631.085 234.086,630.418 232,629.5C 229.793,630.03 227.793,631.03 226,632.5C 223.599,631.398 221.099,631.231 218.5,632C 218.833,632.333 219.167,632.667 219.5,633C 218.216,633.684 217.049,633.517 216,632.5C 213.371,632.928 211.038,633.928 209,635.5C 208.809,633.292 208.309,631.292 207.5,629.5C 207.168,619.81 207.502,610.144 208.5,600.5C 216.503,608.837 224.837,616.837 233.5,624.5C 235.217,626.87 236.883,629.203 238.5,631.5 Z"/></g>
<g><path style="opacity:0.886" fill="#7194cc" d="M 453.5,616.5 C 452.674,621.316 452.174,626.316 452,631.5C 451.503,629.19 451.337,626.857 451.5,624.5C 447.669,624.416 444.002,625.083 440.5,626.5C 440.414,633.037 439.747,639.37 438.5,645.5C 438.5,630.5 438.5,615.5 438.5,600.5C 443.5,600.5 448.5,600.5 453.5,600.5C 453.5,605.833 453.5,611.167 453.5,616.5 Z"/></g>
<g><path style="opacity:0.982" fill="#71a8da" d="M 523.5,620.5 C 523.5,625.5 523.5,630.5 523.5,635.5C 521.824,636.183 521.157,637.517 521.5,639.5C 518.266,640.26 515.099,641.26 512,642.5C 511.802,640.618 511.302,638.952 510.5,637.5C 510.16,628.366 510.827,621.366 512.5,616.5C 516.03,617.011 519.196,616.344 522,614.5C 522.684,615.784 522.517,616.951 521.5,618C 522.066,618.995 522.733,619.828 523.5,620.5 Z"/></g>
<g><path style="opacity:0.989" fill="#70b1e1" d="M 625.5,633.5 C 626.677,635.103 626.511,636.436 625,637.5C 624.333,636.167 623.333,635.167 622,634.5C 618.527,635.602 615.027,636.602 611.5,637.5C 610.791,636.596 609.791,636.263 608.5,636.5C 609.398,635.842 610.398,635.176 611.5,634.5C 611.333,634.167 611.167,633.833 611,633.5C 607.305,634.839 604.972,637.505 604,641.5C 600.579,638.876 597.079,638.876 593.5,641.5C 592.571,640.311 592.238,638.978 592.5,637.5C 592.511,635.453 592.844,633.453 593.5,631.5C 598.437,621.292 603.104,610.958 607.5,600.5C 609.167,600.5 610.833,600.5 612.5,600.5C 612.511,602.547 612.844,604.547 613.5,606.5C 616.239,612.311 619.239,617.978 622.5,623.5C 623.715,626.809 624.715,630.142 625.5,633.5 Z"/></g>
<g><path style="opacity:0.83" fill="#727fbe" d="M 130.5,631.5 C 146.833,631.5 163.167,631.5 179.5,631.5C 179.5,636.167 179.5,640.833 179.5,645.5C 163.167,645.5 146.833,645.5 130.5,645.5C 130.5,640.833 130.5,636.167 130.5,631.5 Z"/></g>
<g><path style="opacity:0.905" fill="#719dd2" d="M 362.5,631.5 C 378.167,631.5 393.833,631.5 409.5,631.5C 409.5,636.167 409.5,640.833 409.5,645.5C 393.833,645.5 378.167,645.5 362.5,645.5C 362.5,640.833 362.5,636.167 362.5,631.5 Z"/></g>
<g><path style="opacity:1" fill="#70a4d7" d="M 453.5,616.5 C 453.5,630.5 453.5,644.5 453.5,658.5C 452.72,653.559 451.72,648.559 450.5,643.5C 447.5,643.5 444.5,643.5 441.5,643.5C 441.68,647.286 440.68,650.619 438.5,653.5C 438.5,650.833 438.5,648.167 438.5,645.5C 439.747,639.37 440.414,633.037 440.5,626.5C 444.002,625.083 447.669,624.416 451.5,624.5C 451.337,626.857 451.503,629.19 452,631.5C 452.174,626.316 452.674,621.316 453.5,616.5 Z"/></g>
<g><path style="opacity:0.64" fill="#728bc6" d="M 263.5,651.5 C 262.683,649.031 262.183,646.365 262,643.5C 261.713,645.891 261.213,648.224 260.5,650.5C 256.289,651.902 251.956,652.736 247.5,653C 245.579,653.36 243.912,654.194 242.5,655.5C 241.808,654.975 241.308,654.308 241,653.5C 240.329,654.252 239.496,654.586 238.5,654.5C 233.473,649.807 228.806,644.807 224.5,639.5C 224.607,637.621 224.107,637.288 223,638.5C 222.667,646.5 222.333,654.5 222,662.5C 221.473,659.772 219.806,658.439 217,658.5C 214.01,659.056 211.51,660.389 209.5,662.5C 207.558,651.755 206.891,640.755 207.5,629.5C 208.309,631.292 208.809,633.292 209,635.5C 211.038,633.928 213.371,632.928 216,632.5C 217.049,633.517 218.216,633.684 219.5,633C 219.167,632.667 218.833,632.333 218.5,632C 221.099,631.231 223.599,631.398 226,632.5C 227.793,631.03 229.793,630.03 232,629.5C 234.086,630.418 236.253,631.085 238.5,631.5C 242.439,634.27 245.939,637.604 249,641.5C 249.5,627.837 249.667,614.171 249.5,600.5C 254.167,600.5 258.833,600.5 263.5,600.5C 263.5,617.5 263.5,634.5 263.5,651.5 Z"/></g>
<g><path style="opacity:0.931" fill="#7292cb" d="M 304.5,614.5 C 305.552,615.53 306.886,616.197 308.5,616.5C 310.204,615.932 311.704,615.932 313,616.5C 314.38,613.942 315.88,613.942 317.5,616.5C 318.182,615.757 318.849,615.091 319.5,614.5C 319.5,623.5 319.5,632.5 319.5,641.5C 318.674,646.316 318.174,651.316 318,656.5C 317.503,654.19 317.337,651.857 317.5,649.5C 314.706,649.415 312.206,649.082 310,648.5C 309.581,649.672 308.915,650.672 308,651.5C 307.333,650.167 306.667,650.167 306,651.5C 305.829,659.344 305.329,667.011 304.5,674.5C 304.5,654.5 304.5,634.5 304.5,614.5 Z"/></g>
<g><path style="opacity:0.894" fill="#70bae7" d="M 523.5,635.5 C 523.5,645.167 523.5,654.833 523.5,664.5C 519.952,665.702 516.285,666.369 512.5,666.5C 512.663,668.857 512.497,671.19 512,673.5C 511.302,670.996 510.469,668.663 509.5,666.5C 509.5,656.833 509.5,647.167 509.5,637.5C 509.833,637.5 510.167,637.5 510.5,637.5C 511.302,638.952 511.802,640.618 512,642.5C 515.099,641.26 518.266,640.26 521.5,639.5C 521.157,637.517 521.824,636.183 523.5,635.5 Z"/></g>
<g><path style="opacity:0.968" fill="#719bd1" d="M 263.5,651.5 C 263.5,659.833 263.5,668.167 263.5,676.5C 262.022,676.762 260.689,676.429 259.5,675.5C 252.452,668.452 245.452,661.452 238.5,654.5C 239.496,654.586 240.329,654.252 241,653.5C 241.308,654.308 241.808,654.975 242.5,655.5C 243.912,654.194 245.579,653.36 247.5,653C 251.956,652.736 256.289,651.902 260.5,650.5C 261.213,648.224 261.713,645.891 262,643.5C 262.183,646.365 262.683,649.031 263.5,651.5 Z"/></g>
<g><path style="opacity:0.955" fill="#6fc8f0" d="M 625.5,633.5 C 630.337,639.62 633.67,646.62 635.5,654.5C 637.906,659.645 640.572,664.645 643.5,669.5C 644.474,671.743 644.808,674.076 644.5,676.5C 639.167,676.5 633.833,676.5 628.5,676.5C 622.96,663.487 617.293,650.487 611.5,637.5C 615.027,636.602 618.527,635.602 622,634.5C 623.333,635.167 624.333,636.167 625,637.5C 626.511,636.436 626.677,635.103 625.5,633.5 Z"/></g>
<g><path style="opacity:1" fill="#71a5d8" d="M 319.5,641.5 C 319.5,653.167 319.5,664.833 319.5,676.5C 314.056,677.108 309.056,676.442 304.5,674.5C 305.329,667.011 305.829,659.344 306,651.5C 306.667,650.167 307.333,650.167 308,651.5C 308.915,650.672 309.581,649.672 310,648.5C 312.206,649.082 314.706,649.415 317.5,649.5C 317.337,651.857 317.503,654.19 318,656.5C 318.174,651.316 318.674,646.316 319.5,641.5 Z"/></g>
<g><path style="opacity:0.968" fill="#6fc6ef" d="M 608.5,636.5 C 603.038,650.09 597.038,663.423 590.5,676.5C 585.167,676.5 579.833,676.5 574.5,676.5C 574.338,674.473 574.505,672.473 575,670.5C 579.964,662.239 584.13,653.572 587.5,644.5C 588.97,641.841 590.636,639.508 592.5,637.5C 592.238,638.978 592.571,640.311 593.5,641.5C 597.079,638.876 600.579,638.876 604,641.5C 604.972,637.505 607.305,634.839 611,633.5C 611.167,633.833 611.333,634.167 611.5,634.5C 610.398,635.176 609.398,635.842 608.5,636.5 Z"/></g>
<g><path style="opacity:0.926" fill="#719bd1" d="M 224.5,639.5 C 223.505,651.655 223.171,663.989 223.5,676.5C 218.833,676.5 214.167,676.5 209.5,676.5C 209.5,671.833 209.5,667.167 209.5,662.5C 211.51,660.389 214.01,659.056 217,658.5C 219.806,658.439 221.473,659.772 222,662.5C 222.333,654.5 222.667,646.5 223,638.5C 224.107,637.288 224.607,637.621 224.5,639.5 Z"/></g>
<g><path style="opacity:0.974" fill="#7288c4" d="M 53.5,633.5 C 51.3162,651.299 58.9829,661.632 76.5,664.5C 84.2398,663.297 90.9065,659.963 96.5,654.5C 98.7414,655.071 100.408,656.404 101.5,658.5C 103.517,661.55 104.517,664.883 104.5,668.5C 102.042,668.227 100.375,669.227 99.5,671.5C 78.0899,683.125 59.4232,679.791 43.5,661.5C 39.7224,654.441 37.389,646.941 36.5,639C 36.3866,637.301 37.0532,636.134 38.5,635.5C 39.3171,637.969 39.8171,640.635 40,643.5C 41,642.5 42,641.5 43,640.5C 45.7414,641.066 48.4081,641.399 51,641.5C 51.9428,638.749 52.7761,636.083 53.5,633.5 Z"/></g>
<g><path style="opacity:1" fill="#70b9e6" d="M 453.5,658.5 C 453.5,660.5 453.5,662.5 453.5,664.5C 463.5,664.5 473.5,664.5 483.5,664.5C 483.5,668.5 483.5,672.5 483.5,676.5C 468.5,676.5 453.5,676.5 438.5,676.5C 438.5,668.833 438.5,661.167 438.5,653.5C 440.68,650.619 441.68,647.286 441.5,643.5C 444.5,643.5 447.5,643.5 450.5,643.5C 451.72,648.559 452.72,653.559 453.5,658.5 Z"/></g>
<g><path style="opacity:1" fill="#7196cd" d="M 130.5,664.5 C 147.5,664.5 164.5,664.5 181.5,664.5C 181.5,668.5 181.5,672.5 181.5,676.5C 164.5,676.5 147.5,676.5 130.5,676.5C 130.5,672.5 130.5,668.5 130.5,664.5 Z"/></g>
<g><path style="opacity:1" fill="#70b5e3" d="M 362.5,664.5 C 378.833,664.5 395.167,664.5 411.5,664.5C 411.5,668.5 411.5,672.5 411.5,676.5C 395.167,676.5 378.833,676.5 362.5,676.5C 362.5,672.5 362.5,668.5 362.5,664.5 Z"/></g>
<g><path style="opacity:0.944" fill="#6fc9f1" d="M 523.5,664.5 C 533.833,664.5 544.167,664.5 554.5,664.5C 554.5,668.5 554.5,672.5 554.5,676.5C 539.5,676.5 524.5,676.5 509.5,676.5C 509.5,673.167 509.5,669.833 509.5,666.5C 510.469,668.663 511.302,670.996 512,673.5C 512.497,671.19 512.663,668.857 512.5,666.5C 516.285,666.369 519.952,665.702 523.5,664.5 Z"/></g>
</svg>
